:FULLY-SPECIFIED
:FORCE-ALL-JOINTS-BE-3DOF
:DEGREES
510
root -4.79609 14.9093 -41.8104 2.0739 -10.3963 -6.09037
lfemur -27.0516 23.9478 -15.7511
ltibia 64.3828 -0 0
lfoot -24.5103 28.305 -0.147587
ltoes -6.70923 0 0
rfemur -35.3154 -11.3255 10.3659
rtibia 71.9697 -0 0
rfoot -5.98329 -8.26998 0.108139
rtoes 11.5235 -0 0
lowerback 16.4838 0.135639 -7.18523
upperback -0.1949 -0.962205 2.81479
thorax -9.31357 -0.0450909 7.4299
lowerneck 3.44107 -14.4935 -15.3298
upperneck 2.78432 -20.623 16.7602
head 3.78626 -10.4029 6.60922
lclavicle 0 0 0
lhumerus -38.5145 -43.7792 109.575
lradius 91.0951 -0 0
lwrist 46.7808 0 0
lhand -8.31823 45.9871 -0.21945
lfingers 0 0 0
lthumb 17.5989 75.1588 -0.224572
rclavicle 0 0 0
rhumerus 39.2567 23.8532 -40.8709
rradius 84.0835 -0 0
rwrist -18.5422 0 0
rhand -5.57048 -19.8439 0.262776
rfingers 0 0 0
rthumb 20.1652 -47.8022 0.531087
511
root -4.87612 14.8898 -41.8395 1.78182 -14.0502 -5.73503
lfemur -25.0664 23.1824 -14.7068
ltibia 63.7487 -0 0
lfoot -24.2219 28.0329 -0.14916
ltoes -7.9307 0 0
rfemur -36.3469 -12.0812 10.1029
rtibia 71.6437 -0 0
rfoot -5.9339 -7.0978 0.109299
rtoes 11.2569 -0 0
lowerback 16.526 0.262694 -7.25028
upperback -0.143765 -0.822954 2.68274
thorax -9.30676 0.018083 7.28692
lowerneck 3.12318 -14.309 -15.2089
upperneck 3.16433 -20.3433 16.336
head 3.84754 -10.2476 6.4664
lclavicle 0 0 0
lhumerus -40.7902 -41.7846 109.533
lradius 91.8965 -0 0
lwrist 48.6826 0 0
lhand -8.61471 46.3809 -0.22179
lfingers 0 0 0
lthumb 17.3135 75.5775 -0.226967
rclavicle 0 0 0
rhumerus 37.0417 22.8355 -42.3107
rradius 81.7792 -0 0
rwrist -17.5499 0 0
rhand -6.8164 -19.957 0.265599
rfingers 0 0 0
rthumb 18.9681 -48.0399 0.536789
512
root -4.95288 14.87 -41.8663 1.46034 -17.7053 -5.35331
lfemur -23.1064 22.3838 -13.6968
ltibia 63.1142 -0 0
lfoot -23.9333 27.7605 -0.149362
ltoes -9.15322 0 0
rfemur -37.3787 -12.8419 9.85286
rtibia 71.3175 -0 0
rfoot -5.88446 -5.92462 0.109449
rtoes 10.9901 -0 0
lowerback 16.568 0.389906 -7.31531
upperback -0.0929096 -0.683465 2.55071
thorax -9.30011 0.081328 7.14382
lowerneck 2.80569 -14.1238 -15.089
upperneck 3.54175 -20.0607 15.9142
head 3.90845 -10.092 6.3237
lclavicle 0 0 0
lhumerus -43.0024 -39.791 109.389
lradius 92.6986 -0 0
lwrist 50.5861 0 0
lhand -8.91145 46.7751 -0.222091
lfingers 0 0 0
lthumb 17.0279 75.9965 -0.227276
rclavicle 0 0 0
rhumerus 34.8696 21.7669 -43.6976
rradius 79.4729 -0 0
rwrist -16.5567 0 0
rhand -8.06339 -20.0701 0.265962
rfingers 0 0 0
rthumb 17.77 -48.2779 0.537524
513
root -5.02635 14.8499 -41.8907 1.1065 -21.3472 -4.94215
lfemur -21.1787 21.5566 -12.7254
ltibia 62.4815 -0 0
lfoot -23.6455 27.4889 -0.148198
ltoes -10.3721 0 0
rfemur -38.4072 -13.6047 9.61688
rtibia 70.9922 -0 0
rfoot -5.83517 -4.75496 0.10859
rtoes 10.7241 -0 0
lowerback 16.6099 0.516783 -7.38004
upperback -0.0425278 -0.544279 2.4192
thorax -9.29363 0.1444 7.00116
lowerneck 2.48981 -13.9385 -14.9707
upperneck 3.91516 -19.7765 15.4964
head 3.96875 -9.93669 6.18166
lclavicle 0 0 0
lhumerus -45.1536 -37.809 109.153
lradius 93.4983 -0 0
lwrist 52.4839 0 0
lhand -9.2073 47.1681 -0.220359
lfingers 0 0 0
lthumb 16.7431 76.4143 -0.225503
rclavicle 0 0 0
rhumerus 32.748 20.6545 -45.0262
rradius 77.1735 -0 0
rwrist -15.5665 0 0
rhand -9.30664 -20.1829 0.263873
rfingers 0 0 0
rthumb 16.5756 -48.515 0.533303
